<svg width="144" height="27" viewBox="0 0 144 27" fill="none" xmlns="http://www.w3.org/2000/svg">
<path d="M13.7062 0.745117L16.5629 9.53706H25.8073L18.3284 14.9708L21.1851 23.7627L13.7062 18.329L6.22735 23.7627L9.08402 14.9708L1.60517 9.53706H10.8495L13.7062 0.745117Z" fill="#00CA81"/>
<path d="M42.8957 0.745117L45.7523 9.53706H54.9967L47.5178 14.9708L50.3745 23.7627L42.8957 18.329L35.4168 23.7627L38.2735 14.9708L30.7946 9.53706H40.039L42.8957 0.745117Z" fill="#00CA81"/>
<path d="M72.0851 0.745117L74.9418 9.53706H84.1862L76.7073 14.9708L79.564 23.7627L72.0851 18.329L64.6063 23.7627L67.4629 14.9708L59.9841 9.53706H69.2284L72.0851 0.745117Z" fill="#00CA81"/>
<path d="M101.277 0.745117L104.133 9.53706H113.378L105.899 14.9708L108.755 23.7627L101.277 18.329L93.7977 23.7627L96.6543 14.9708L89.1755 9.53706H98.4199L101.277 0.745117Z" fill="#00CA81"/>
<path d="M130.466 0.745117L133.323 9.53706H142.567L135.088 14.9708L137.945 23.7627L130.466 18.329L122.987 23.7627L125.844 14.9708L118.365 9.53706H127.609L130.466 0.745117Z" fill="#D9D9D9"/>
<path d="M130.466 0.745117L133.323 9.53706L134.209 12.3462L135.088 14.9708L137.945 23.7627L130.466 18.329L122.987 23.7627L125.844 14.9708L118.365 9.53706L127.61 9.53706L130.466 0.745117Z" fill="#00CA81"/>
</svg>
