<svg width="21" height="25" viewBox="0 0 21 25" fill="none" xmlns="http://www.w3.org/2000/svg">
<path fill-rule="evenodd" clip-rule="evenodd" d="M8.17505 0.0939407C6.15755 0.0939407 4.52204 1.72945 4.52204 3.74695L4.52204 3.74974C3.20965 3.75551 2.48973 3.80097 1.95341 4.15933C1.6875 4.33701 1.45919 4.56532 1.28152 4.83123C0.871094 5.44547 0.871094 6.30055 0.871094 8.0107V19.5784C0.871094 21.8744 0.871094 23.0225 1.58438 23.7357C2.29766 24.449 3.44567 24.449 5.7417 24.449H15.4829C17.7789 24.449 18.9269 24.449 19.6402 23.7357C20.3535 23.0225 20.3535 21.8744 20.3535 19.5784V8.0107C20.3535 6.30055 20.3535 5.44547 19.9431 4.83123C19.7654 4.56532 19.5371 4.33701 19.2712 4.15933C18.7343 3.80062 18.0135 3.75542 16.6987 3.74973L16.6987 3.74695C16.6987 1.72945 15.0632 0.0939407 13.0457 0.0939407H8.17505ZM8.17825 3.74402C8.17825 3.07152 8.72342 2.52635 9.39592 2.52635H11.8312C12.5037 2.52635 13.0489 3.07152 13.0489 3.74402C13.0489 4.41652 12.5037 4.96169 11.8312 4.96169H9.39592C8.72342 4.96169 8.17825 4.41652 8.17825 3.74402ZM6.96571 11.0471C6.29321 11.0471 5.74804 11.5922 5.74804 12.2647C5.74804 12.9372 6.29321 13.4824 6.96571 13.4824H14.2716C14.9441 13.4824 15.4893 12.9372 15.4893 12.2647C15.4893 11.5922 14.9441 11.0471 14.2716 11.0471H6.96571ZM6.96571 15.9177C6.29321 15.9177 5.74804 16.4628 5.74804 17.1353C5.74804 17.8078 6.29321 18.353 6.96571 18.353H11.8363C12.5088 18.353 13.054 17.8078 13.054 17.1353C13.054 16.4628 12.5088 15.9177 11.8363 15.9177H6.96571Z" fill="black"/>
</svg>
