<svg width="41" height="41" viewBox="0 0 41 41" fill="none" xmlns="http://www.w3.org/2000/svg">
<path fill-rule="evenodd" clip-rule="evenodd" d="M20.4251 40.7441C31.5006 40.7441 40.4791 31.7656 40.4791 20.6901C40.4791 16.6051 39.2577 12.8054 37.1602 9.63626L21.2174 27.3505C19.674 29.0655 17.0768 29.3188 15.231 27.9345L7.94822 22.4724C6.96371 21.734 6.76419 20.3373 7.50257 19.3528C8.24095 18.3683 9.63763 18.1688 10.6221 18.9072L17.9049 24.3693L34.2718 6.18377C30.6721 2.74673 25.7951 0.636032 20.4251 0.636032C9.34958 0.636032 0.371094 9.61454 0.371094 20.6901C0.371094 31.7656 9.34958 40.7441 20.4251 40.7441Z" fill="#626262"/>
</svg>
