<svg version="1.1" xmlns="http://www.w3.org/2000/svg" xmlns:xlink="http://www.w3.org/1999/xlink" width="28" height="25" viewBox="0,0,256,228.5625"><g fill="#000000" fill-rule="evenodd" stroke="none" stroke-width="1" stroke-linecap="butt" stroke-linejoin="miter" stroke-miterlimit="10" stroke-dasharray="" stroke-dashoffset="0" font-family="none" font-weight="none" font-size="none" text-anchor="none" style="mix-blend-mode: normal"><g transform="translate(0.33526,-1.50683) scale(9.14286,9.14286)"><path d="M1.93152,1.9516c-1.15906,1.15905 -1.15906,3.02453 -1.15906,6.75547v7.91453c0,3.7309 0,5.5964 1.15906,6.7555c1.15905,1.159 3.02453,1.159 6.75547,1.159h10.55271c3.7309,0 5.5964,0 6.7555,-1.159c1.159,-1.1591 1.159,-3.0246 1.159,-6.7555v-7.91453c0,-3.73094 0,-5.59642 -1.159,-6.75547c-1.1591,-1.15906 -3.0246,-1.15906 -6.7555,-1.15906h-10.55271c-3.73094,0 -5.59642,0 -6.75547,1.15906zM19.2391,7.38795c0.7285,0 1.3191,0.59057 1.3191,1.31908v10.55267c0,0.7286 -0.5906,1.3191 -1.3191,1.3191c-0.7285,0 -1.3191,-0.5905 -1.3191,-1.3191v-10.55267c0,-0.72851 0.5906,-1.31908 1.3191,-1.31908zM10.0062,11.3452c0,-0.7285 -0.59056,-1.3191 -1.31907,-1.3191c-0.72851,0 -1.31909,0.5906 -1.31909,1.3191v7.9146c0,0.7285 0.59058,1.319 1.31909,1.319c0.72851,0 1.31907,-0.5905 1.31907,-1.319zM15.2822,13.9834c0,-0.7285 -0.5906,-1.3191 -1.3191,-1.3191c-0.7285,0 -1.3191,0.5906 -1.3191,1.3191v5.2764c0,0.7285 0.5906,1.3191 1.3191,1.3191c0.7285,0 1.3191,-0.5906 1.3191,-1.3191z"></path></g></g></svg>