<svg width="21" height="19" viewBox="0 0 21 19" fill="none" xmlns="http://www.w3.org/2000/svg">
<path d="M2.84112 10.2313L9.77173 16.7418C10.0105 16.9661 10.1298 17.0782 10.2706 17.1058C10.334 17.1183 10.3992 17.1183 10.4625 17.1058C10.6033 17.0782 10.7226 16.9661 10.9614 16.7418L17.892 10.2313C19.842 8.39945 20.0788 5.38503 18.4387 3.27121L18.1304 2.87374C16.1684 0.34501 12.2303 0.769094 10.8517 3.65756C10.6569 4.06558 10.0762 4.06558 9.88143 3.65756C8.50284 0.769094 4.5647 0.345007 2.60275 2.87374L2.29437 3.27121C0.654338 5.38503 0.891136 8.39945 2.84112 10.2313Z" fill="#353535" stroke="#353535" stroke-width="1.99367"/>
</svg>
