<svg width="192" height="35" viewBox="0 0 192 35" fill="none" xmlns="http://www.w3.org/2000/svg">
<path d="M17.2374 0.208008L21.0798 12.0337H33.514L23.4545 19.3424L27.2969 31.1681L17.2374 23.8594L7.17782 31.1681L11.0202 19.3424L0.96068 12.0337H13.395L17.2374 0.208008Z" fill="#00CA81"/>
<path d="M56.4991 0.208008L60.3415 12.0337H72.7757L62.7162 19.3424L66.5586 31.1681L56.4991 23.8594L46.4395 31.1681L50.2819 19.3424L40.2224 12.0337H52.6567L56.4991 0.208008Z" fill="#00CA81"/>
<path d="M95.7627 0.208008L99.6051 12.0337H112.039L101.98 19.3424L105.822 31.1681L95.7627 23.8594L85.7032 31.1681L89.5456 19.3424L79.4861 12.0337H91.9203L95.7627 0.208008Z" fill="#00CA81"/>
<path d="M135.024 0.208008L138.867 12.0337H151.301L141.242 19.3424L145.084 31.1681L135.024 23.8594L124.965 31.1681L128.807 19.3424L118.748 12.0337H131.182L135.024 0.208008Z" fill="#00CA81"/>
<path d="M174.286 0.208008L178.129 12.0337H190.563L180.503 19.3424L184.346 31.1681L174.286 23.8594L164.227 31.1681L168.069 19.3424L158.01 12.0337H170.444L174.286 0.208008Z" fill="#D9D9D9"/>
<path d="M174.288 0.208008L178.131 12.0337L179.322 15.8123L180.506 19.3424L184.348 31.1681L174.288 23.8594L164.229 31.1681L168.071 19.3424L158.012 12.0337L170.446 12.0337L174.288 0.208008Z" fill="#00CA81"/>
</svg>
