<svg width="49" height="50" viewBox="0 0 49 50" fill="none" xmlns="http://www.w3.org/2000/svg">
<path d="M0.291016 49.2773L3.6877 36.8681C1.5917 33.2358 0.490347 29.1181 0.492361 24.8958C0.498401 11.6953 11.2402 0.953278 24.4383 0.953278C30.8431 0.955291 36.8553 3.45002 41.3775 7.97637C45.8977 12.5027 48.3863 18.5191 48.3843 24.918C48.3782 38.1205 37.6365 48.8626 24.4383 48.8626C20.4316 48.8605 16.4832 47.8558 12.9858 45.947L0.291016 49.2773ZM13.5737 41.6119C16.9483 43.6154 20.1698 44.8154 24.4303 44.8174C35.3995 44.8174 44.3352 35.8896 44.3413 24.914C44.3453 13.9162 35.4519 5.00042 24.4464 4.99639C13.469 4.99639 4.53939 13.9243 4.53537 24.8978C4.53335 29.3779 5.84612 32.7324 8.05085 36.2419L6.03941 43.5872L13.5737 41.6119ZM36.5009 30.6102C36.3519 30.3605 35.9532 30.2115 35.3532 29.9115C34.7552 29.6115 31.8136 28.1637 31.2639 27.9644C30.7162 27.7651 30.3176 27.6644 29.9169 28.2644C29.5182 28.8624 28.3706 30.2115 28.0223 30.6102C27.6739 31.0088 27.3236 31.0592 26.7256 30.7592C26.1276 30.4591 24.1987 29.8289 21.9134 27.7892C20.1356 26.2026 18.9335 24.2435 18.5852 23.6434C18.2369 23.0454 18.549 22.7213 18.847 22.4233C19.1168 22.1555 19.445 21.7246 19.745 21.3742C20.049 21.0279 20.1477 20.7782 20.349 20.3775C20.5483 19.9789 20.4497 19.6285 20.2987 19.3285C20.1477 19.0305 18.9517 16.0847 18.4543 14.8867C17.9671 13.7209 17.4738 13.8779 17.1073 13.8598L15.9597 13.8397C15.561 13.8397 14.9127 13.9887 14.365 14.5887C13.8174 15.1887 12.271 16.6344 12.271 19.5802C12.271 22.5259 14.4154 25.371 14.7134 25.7697C15.0134 26.1684 18.9315 32.2129 24.9336 34.8043C26.3612 35.4204 27.4766 35.7889 28.3444 36.0647C29.778 36.5198 31.0827 36.4553 32.1136 36.3023C33.2633 36.1312 35.6532 34.8546 36.1526 33.4572C36.6519 32.0579 36.6519 30.8598 36.5009 30.6102Z" fill="white"/>
</svg>
