<svg width="104" height="19" viewBox="0 0 104 19" fill="none" xmlns="http://www.w3.org/2000/svg">
<path d="M9.76468 0.373047L11.825 6.71405H18.4923L13.0983 10.633L15.1587 16.974L9.76468 13.0551L4.3707 16.974L6.43102 10.633L1.03703 6.71405H7.70436L9.76468 0.373047Z" fill="#00CA81"/>
<path d="M30.8174 0.373047L32.8777 6.71405H39.5451L34.1511 10.633L36.2114 16.974L30.8174 13.0551L25.4234 16.974L27.4838 10.633L22.0898 6.71405H28.7571L30.8174 0.373047Z" fill="#00CA81"/>
<path d="M51.8702 0.373047L53.9305 6.71405H60.5978L55.2038 10.633L57.2641 16.974L51.8702 13.0551L46.4762 16.974L48.5365 10.633L43.1425 6.71405H49.8098L51.8702 0.373047Z" fill="#00CA81"/>
<path d="M72.9229 0.373047L74.9832 6.71405H81.6505L76.2566 10.633L78.3169 16.974L72.9229 13.0551L67.5289 16.974L69.5892 10.633L64.1952 6.71405H70.8626L72.9229 0.373047Z" fill="#00CA81"/>
<path d="M93.9756 0.373047L96.0359 6.71405H102.703L97.3093 10.633L99.3696 16.974L93.9756 13.0551L88.5816 16.974L90.642 10.633L85.248 6.71405H91.9153L93.9756 0.373047Z" fill="#D9D9D9"/>
<path d="M93.9757 0.373047L96.036 6.71405L96.6748 8.74012L97.3094 10.633L99.3697 16.974L93.9757 13.0551L88.5817 16.974L90.642 10.633L85.248 6.71406L91.9154 6.71405L93.9757 0.373047Z" fill="#00CA81"/>
</svg>
