<svg width="45" height="45" viewBox="0 0 45 45" fill="none" xmlns="http://www.w3.org/2000/svg">
<path d="M15 15L15 13.125C15 8.98285 18.3579 5.62499 22.5 5.62499V5.62499C26.6421 5.62499 30 8.98285 30 13.125L30 15" stroke="#353535" stroke-width="3.75" stroke-linecap="round"/>
<path fill-rule="evenodd" clip-rule="evenodd" d="M6.72335 14.2234C5.625 15.3217 5.625 17.0895 5.625 20.625V26.25C5.625 33.3211 5.625 36.8566 7.8217 39.0533C10.0184 41.25 13.5539 41.25 20.625 41.25H24.375C31.4461 41.25 34.9816 41.25 37.1783 39.0533C39.375 36.8566 39.375 33.3211 39.375 26.25V20.625C39.375 17.0895 39.375 15.3217 38.2766 14.2234C37.1783 13.125 35.4105 13.125 31.875 13.125H13.125C9.58947 13.125 7.8217 13.125 6.72335 14.2234ZM18.75 22.5C18.75 21.4645 17.9105 20.625 16.875 20.625C15.8395 20.625 15 21.4645 15 22.5V26.25C15 27.2855 15.8395 28.125 16.875 28.125C17.9105 28.125 18.75 27.2855 18.75 26.25V22.5ZM30 22.5C30 21.4645 29.1605 20.625 28.125 20.625C27.0895 20.625 26.25 21.4645 26.25 22.5V26.25C26.25 27.2855 27.0895 28.125 28.125 28.125C29.1605 28.125 30 27.2855 30 26.25V22.5Z" fill="#353535"/>
</svg>
