<svg width="25" height="25" viewBox="0 0 25 25" fill="none" xmlns="http://www.w3.org/2000/svg">
<path fill-rule="evenodd" clip-rule="evenodd" d="M2.87305 21.5V7.5C2.87305 5.61438 2.87305 4.67157 3.45883 4.08579C4.04462 3.5 4.98743 3.5 6.87305 3.5H16.873C17.7047 3.5 18.3509 3.5 18.8767 3.52706C16.625 3.7741 14.873 5.68245 14.873 8V11.5002L14.7742 21.4671L11.873 20.5L8.87305 21.5L5.87305 20.5L2.87305 21.5ZM21.873 11.5L16.873 11.5V8C16.873 6.61929 17.9923 5.5 19.373 5.5C20.7538 5.5 21.873 6.61929 21.873 8V11.5ZM4.87305 7.5C4.87305 6.94772 5.32076 6.5 5.87305 6.5H11.873C12.4253 6.5 12.873 6.94772 12.873 7.5C12.873 8.05228 12.4253 8.5 11.873 8.5H5.87305C5.32076 8.5 4.87305 8.05228 4.87305 7.5ZM4.87305 11.5C4.87305 10.9477 5.32076 10.5 5.87305 10.5H7.87305C8.42533 10.5 8.87305 10.9477 8.87305 11.5C8.87305 12.0523 8.42533 12.5 7.87305 12.5H5.87305C5.32076 12.5 4.87305 12.0523 4.87305 11.5ZM4.87305 15.5C4.87305 14.9477 5.32076 14.5 5.87305 14.5H9.87305C10.4253 14.5 10.873 14.9477 10.873 15.5C10.873 16.0523 10.4253 16.5 9.87305 16.5H5.87305C5.32076 16.5 4.87305 16.0523 4.87305 15.5Z" fill="#222222"/>
</svg>
