<svg width="186" height="186" viewBox="0 0 186 186" fill="none" xmlns="http://www.w3.org/2000/svg">
<path d="M180.188 2.90625H5.8125C4.20534 2.90625 2.90625 4.20825 2.90625 5.8125V133.688C2.90625 135.292 4.20534 136.594 5.8125 136.594H40.1644L34.9157 168.083C34.7355 169.161 35.1772 170.251 36.0578 170.899C36.9355 171.55 38.1009 171.649 39.0832 171.161L61.0312 160.187L82.9822 171.161C83.3919 171.367 83.8395 171.469 84.2812 171.469C84.8916 171.469 85.499 171.277 86.0076 170.899C86.8882 170.251 87.327 169.161 87.1497 168.083L81.8981 136.594H142.406V154.031H133.688C132.08 154.031 130.781 155.333 130.781 156.938V165.656H127.875C126.268 165.656 124.969 166.958 124.969 168.562V180.188C124.969 181.792 126.268 183.094 127.875 183.094H174.375C175.982 183.094 177.281 181.792 177.281 180.188V168.562C177.281 166.958 175.982 165.656 174.375 165.656H171.469V156.938C171.469 155.333 170.17 154.031 168.562 154.031H159.844V136.594H180.188C181.795 136.594 183.094 135.292 183.094 133.688V5.8125C183.094 4.20825 181.795 2.90625 180.188 2.90625ZM33.6224 103.657C32.6953 106.282 32.178 109.013 32.0327 111.798C28.4958 109.769 26.1562 105.968 26.1562 101.719V37.7812C26.1562 31.3701 31.3701 26.1562 37.7812 26.1562H148.219C154.63 26.1562 159.844 31.3701 159.844 37.7812V101.719C159.844 103.794 159.28 105.77 158.254 107.531H139.5C137.893 107.531 136.594 108.833 136.594 110.438V113.344H90.0938C90.0938 97.3187 77.0563 84.2812 61.0312 84.2812C48.7378 84.2812 37.7202 92.0671 33.6224 103.657ZM156.938 119.156H145.312H142.406V113.344H159.844V119.156H156.938ZM39.1036 105.593C42.3818 96.3218 51.1936 90.0938 61.0312 90.0938C73.8507 90.0938 84.2812 100.524 84.2812 113.344C84.2812 126.163 73.8507 136.594 61.0312 136.594C48.2118 136.594 37.7812 126.163 37.7812 113.344C37.7812 110.685 38.2259 108.078 39.1036 105.593ZM62.3303 154.336C61.5137 153.927 60.5488 153.927 59.7293 154.336L41.5855 163.41L45.8112 138.053C50.2462 140.796 55.4483 142.406 61.0312 142.406C66.6142 142.406 71.8163 140.796 76.2513 138.056L80.477 163.413L62.3303 154.336ZM84.226 130.781C86.7777 127.395 88.6319 123.457 89.5096 119.156H136.594V122.062C136.594 123.667 137.893 124.969 139.5 124.969H142.406V130.781H84.226ZM171.469 177.281H130.781V171.469H133.688H168.562H171.469V177.281ZM165.656 165.656H136.594V159.844H145.312H156.938H165.656V165.656ZM148.219 154.031V124.969H154.031V154.031H148.219ZM177.281 130.781H159.844V124.969H162.75C164.357 124.969 165.656 123.667 165.656 122.062V110.438C165.656 109.458 165.142 108.636 164.398 108.107C165.197 106.09 165.656 103.945 165.656 101.719V37.7812C165.656 28.1645 157.836 20.3438 148.219 20.3438H37.7812C28.1645 20.3438 20.3438 28.1645 20.3438 37.7812V101.719C20.3438 109.316 25.3338 115.945 32.4163 118.249C33.2126 122.897 35.1104 127.163 37.8365 130.781H8.71875V8.71875H177.281V130.781Z" fill="black"/>
<path d="M61.0312 130.781C70.648 130.781 78.4688 122.961 78.4688 113.344C78.4688 103.727 70.648 95.9062 61.0312 95.9062C51.4145 95.9062 43.5938 103.727 43.5938 113.344C43.5938 122.961 51.4145 130.781 61.0312 130.781ZM61.0312 101.719C67.4424 101.719 72.6562 106.933 72.6562 113.344C72.6562 119.755 67.4424 124.969 61.0312 124.969C54.6201 124.969 49.4062 119.755 49.4062 113.344C49.4062 106.933 54.6201 101.719 61.0312 101.719Z" fill="black"/>
<path d="M110.438 37.7812H75.5625V43.5938H110.438V37.7812Z" fill="black"/>
<path d="M124.969 49.4062H61.0312V55.2188H124.969V49.4062Z" fill="black"/>
<path d="M110.438 61.0312H75.5625V66.8438H110.438V61.0312Z" fill="black"/>
</svg>
