<svg width="20" height="20" viewBox="0 0 20 20" fill="none" xmlns="http://www.w3.org/2000/svg">
<path d="M2.26932 1.66837L3.1927 0.744988C3.60415 0.333542 4.27123 0.333543 4.68268 0.744988L7.62879 3.6911C8.04024 4.10255 8.04024 4.76963 7.62879 5.18108L5.60176 7.20811C5.27029 7.53958 5.18812 8.04596 5.39775 8.46524C6.60965 10.889 8.57498 12.8544 10.9988 14.0663C11.418 14.2759 11.9244 14.1937 12.2559 13.8622L14.2829 11.8352C14.6944 11.4238 15.3615 11.4238 15.7729 11.8352L18.719 14.7813C19.1305 15.1928 19.1305 15.8599 18.719 16.2713L17.7956 17.1947C15.5712 19.4191 12.0495 19.6694 9.53285 17.7819L7.8161 16.4943C5.97917 15.1166 4.34737 13.4848 2.96967 11.6479L1.68211 9.93115C-0.205411 7.41446 0.0448613 3.89283 2.26932 1.66837Z" fill="#222222"/>
</svg>
