<svg width="17" height="17" viewBox="0 0 17 17" fill="none" xmlns="http://www.w3.org/2000/svg">
<path d="M2.52814 1.30898L3.31591 0.521204C3.66694 0.170181 4.23606 0.170181 4.58708 0.521204L7.10055 3.03467C7.45157 3.3857 7.45157 3.95482 7.10055 4.30584L5.37119 6.0352C5.0884 6.31799 5.01829 6.75001 5.19715 7.10771C6.23107 9.17556 7.90779 10.8523 9.97563 11.8862C10.3333 12.0651 10.7654 11.9949 11.0481 11.7122L12.7775 9.98279C13.1285 9.63177 13.6976 9.63177 14.0487 9.98279L16.5621 12.4963C16.9132 12.8473 16.9132 13.4164 16.5621 13.7674L15.7744 14.5552C13.8766 16.453 10.8721 16.6665 8.725 15.0562L7.26035 13.9577C5.69318 12.7823 4.30102 11.3902 3.12564 9.82299L2.02715 8.35835C0.416824 6.21124 0.630346 3.20677 2.52814 1.30898Z" fill="white"/>
</svg>
